<svg xmlns="http://www.w3.org/2000/svg" viewBox="0 0 24 24" fill="#4f46ef">
    <path d="M12.035 0C5.393 0 0 5.393 0 12.035s5.393 12.035 12.035 12.035 12.035-5.393 12.035-12.035S18.677 0 12.035 0zm5.982 17.352h-1.521c-.612 0-.753-.495-1.956-1.68-1.065-1.05-1.518-.9-1.782-.9-.231 0-.297.072-.297.45v1.368c0 .324-.108.558-.513.558-1.269 0-2.733-1.107-3.726-3.18C7.173 11.94 7.05 10.74 7.05 10.74c0-.414.117-.603.459-.603h1.521c.36 0 .504.171.639.54.69 1.935 1.86 3.486 2.175 3.486.171 0 .243-.075.243-.558v-2.232c0-.495-.162-.684-.567-.684h-1.08c-.396 0-.459-.189-.459-.513V8.307c0-.36.171-.54.558-.54h3.024c.342 0 .459.162.459.522v.963c0 .36-.054.495.198.495.108 0 .297 0 .729-.459.513-.558.9-1.152 1.125-1.521.135-.252.342-.36.621-.36h1.521c.414 0 .495.216.405.504-.189.558-1.026 1.62-1.17 1.782-.27.324-.72.9-.846 1.017-.225.234-.162.369 0 .594.009.012 1.113 1.599 1.242 2.151.162.666-.162.945-.594.945z"/>
</svg>
